<?xml version="1.0" encoding="UTF-8" standalone="no"?>
<!-- Created with Inkscape (http://www.inkscape.org/) -->

<svg
   width="600mm"
   height="400mm"
   viewBox="0 0 600 400"
   version="1.1"
   id="svg1"
   inkscape:version="1.4.3 (0d15f75, 2025-12-25)"
   sodipodi:docname="Bambulanssi_uusi.svg"
   xmlns:inkscape="http://www.inkscape.org/namespaces/inkscape"
   xmlns:sodipodi="http://sodipodi.sourceforge.net/DTD/sodipodi-0.dtd"
   xmlns="http://www.w3.org/2000/svg"
   xmlns:svg="http://www.w3.org/2000/svg">
  <sodipodi:namedview
     id="namedview1"
     pagecolor="#ffffff"
     bordercolor="#000000"
     borderopacity="0.25"
     inkscape:showpageshadow="2"
     inkscape:pageopacity="0.0"
     inkscape:pagecheckerboard="0"
     inkscape:deskcolor="#d1d1d1"
     inkscape:document-units="mm"
     inkscape:zoom="2.0881594"
     inkscape:cx="846.91812"
     inkscape:cy="783.46511"
     inkscape:window-width="1440"
     inkscape:window-height="830"
     inkscape:window-x="-6"
     inkscape:window-y="-6"
     inkscape:window-maximized="1"
     inkscape:current-layer="layer1" />
  <defs
     id="defs1" />
  <g
     inkscape:label="Taso 1"
     inkscape:groupmode="layer"
     id="layer1">
    <path
       id="path43"
       d="m 145.84088,97.287355 h -8.24336 v 3.000025 h -9.99914 v -3.000025 h -19.99932 v 3.000025 h -9.99913 v -3.000025 h -6.6668 c -1.50071,0 -2.72838,-1.22626 -2.72838,-2.72415 v -74.99561 c 0,-1.49825 1.22908,-2.7231 2.72838,-2.7231 h 6.64775 l -0.006,-3.00002 h 10.00055 l 0.008,3.00002 h 20.01591 v -3.00002 h 9.99913 v 3.00002 h 8.24336 v 32.81927 h 3.00002 v 14.76975 l -3.00002,0.20002 v 32.65382 z"
       style="fill:none;stroke:#00000c;stroke-width:0.025;stroke-linecap:butt;stroke-linejoin:miter;stroke-miterlimit:22.9256;stroke-dasharray:none;stroke-opacity:1" />
    <path
       id="path44"
       d="M 40.29788,110.33774 H 15.629542 V 90.598947 h 1.000478 v -3.007078 l -0.989542,0.0085 -0.01094,-13.207294 V 31.428592 H 16.63002 V 28.406697 H 15.629542 V 9.0166531 l 24.686328,0.0014 0.01,2.9876749 h 10.00054 l 0.0109,-2.9876749 28.22896,0.0028 V 54.670649 l 3.00002,0.0081 v 9.999132 l -3.00002,0.0056 V 110.33768 H 50.3359 l -0.01,-2.90477 -10.01007,-0.0843 z"
       style="fill:none;stroke:#00000c;stroke-width:0.025;stroke-linecap:butt;stroke-linejoin:miter;stroke-miterlimit:22.9256;stroke-dasharray:none;stroke-opacity:1"
       sodipodi:nodetypes="cccccccccccccccccccccccccc" />
    <path
       id="path45"
       d="M 19.697423,52.194149 H 22.69744 V 67.16392 h -3.000017 z"
       style="fill:none;stroke:#00000c;stroke-width:0.025;stroke-linecap:butt;stroke-linejoin:miter;stroke-miterlimit:22.9256;stroke-dasharray:none;stroke-opacity:1" />
    <path
       id="path46"
       d="m 37.51023,45.029938 h 10.23302 c 1.85632,0 3.37362,1.517297 3.37362,3.373261 v 22.667382 c 0,1.854906 -1.5173,3.373614 -3.37362,3.373614 H 37.51023 c -1.85491,0 -3.3722,-1.518708 -3.3722,-3.373614 V 48.403199 c 0,-1.855964 1.51729,-3.373261 3.3722,-3.373261 z"
       style="fill:none;stroke:#00000c;stroke-width:0.025;stroke-linecap:butt;stroke-linejoin:miter;stroke-miterlimit:22.9256;stroke-dasharray:none;stroke-opacity:1" />
    <path
       id="path47"
       d="m 30.83215,99.837138 h 11.93517 v 3.000022 H 30.83215 Z"
       style="fill:none;stroke:#00000c;stroke-width:0.025;stroke-linecap:butt;stroke-linejoin:miter;stroke-miterlimit:22.9256;stroke-dasharray:none;stroke-opacity:1" />
    <path
       id="path48"
       d="m 30.83215,16.519851 h 11.93517 v 3.000022 H 30.83215 Z"
       style="fill:none;stroke:#00000c;stroke-width:0.025;stroke-linecap:butt;stroke-linejoin:miter;stroke-miterlimit:22.9256;stroke-dasharray:none;stroke-opacity:1" />
    <path
       id="path49"
       d="m 55.64512,51.956024 h 3.00003 v 15.070313 h -3.00003 z"
       style="fill:none;stroke:#00000c;stroke-width:0.025;stroke-linecap:butt;stroke-linejoin:miter;stroke-miterlimit:22.9256;stroke-dasharray:none;stroke-opacity:1" />
    <path
       id="path67"
       d="m 97.02322,40.566085 h 5.00097 v 3.00003 h -5.00097 z"
       style="fill:none;stroke:#00000c;stroke-width:0.025;stroke-linecap:butt;stroke-linejoin:miter;stroke-miterlimit:22.9256;stroke-dasharray:none;stroke-opacity:1"
       sodipodi:nodetypes="ccccc" />
    <path
       id="path40"
       d="M 42.716736,175.82479 H 62.71606 v 3.00002 H 42.716736 Z"
       style="fill:none;stroke:#00000c;stroke-width:0.025;stroke-linecap:butt;stroke-linejoin:miter;stroke-miterlimit:22.9256;stroke-dasharray:none;stroke-opacity:1" />
    <path
       id="path41"
       d="m 111.22582,175.82479 h 19.99933 v 3.00002 h -19.99933 z"
       style="fill:none;stroke:#00000c;stroke-width:0.025;stroke-linecap:butt;stroke-linejoin:miter;stroke-miterlimit:22.9256;stroke-dasharray:none;stroke-opacity:1" />
    <path
       id="path42"
       d="m 153.74225,119.87671 0.007,31.24411 3.00002,-0.008 v 10.00019 h -2.9972 l 0.008,48.8763 -7.77205,-0.003 c -21.30601,0 -42.61167,0 -63.919095,0 -0.822508,-16.82708 -14.569552,-20.48997 -20.505038,-20.4995 -6.906683,-0.0123 -19.947112,4.92231 -20.536604,20.49957 H 18.86402 V 195.2251 l 3.020836,-0.0265 v -9.82945 H 18.86402 v -65.49389 h 23.862241 l -0.0095,3.00002 h 20.000735 l -0.0035,-3.00002 48.511184,0.001 v 2.99861 h 20.00073 v -2.99861 h 22.51569 z"
       style="fill:none;stroke:#00000c;stroke-width:0.025;stroke-linecap:butt;stroke-linejoin:miter;stroke-miterlimit:22.9256;stroke-dasharray:none;stroke-opacity:1" />
    <path
       id="path68"
       d="m 97.0237,70.566095 h 5.00052 v 3.00002 h -5.001 z"
       style="fill:none;stroke:#00000c;stroke-width:0.025;stroke-linecap:butt;stroke-linejoin:miter;stroke-miterlimit:22.9256;stroke-dasharray:none;stroke-opacity:1"
       sodipodi:nodetypes="ccccc" />
    <path
       id="path49-1"
       d="m 98.12323,52.030735 h 3.00003 v 10.07039 h -3.00003 z"
       style="fill:none;stroke:#00000c;stroke-width:0.025;stroke-linecap:butt;stroke-linejoin:miter;stroke-miterlimit:22.9256;stroke-dasharray:none;stroke-opacity:1"
       sodipodi:nodetypes="ccccc" />
    <path
       id="path38"
       d="m 263.92586,235.11495 h -6.70031 v 3.00002 H 246.8807 l -0.19967,-3.00002 H 239.496 l -14.27296,-14.37816 0,-43.68659 17.42997,-10.16741 -0.003,-93.921429 -12.42695,-10.20163 v -21.55119 l 7.68526,0.0109 v -2.29975 l -5.99334,-0.69991 -1.69192,-0.0113 v -9.18986 l 13.19318,-5.34423 v -9.15847 l 2.91465,-5.1096297 h 5.3273 l 0.20002,-3.00002 h 8.3439 v 3.00002 h 5.87869 l 1.32856,30.0989997 -1.34937,6.53873 2.77706,0.81316 0.83221,-3.15172 4.1783,1.50213 2.6871,4.27319 -2.41158,2.38408 1.93745,2.44051 -3.5306,3.4604 -2.16605,-2.18299 -2.68993,2.64195 -3.62162,-3.55564 -2.0313,-4.32259 -6.31683,0.004 -0.008,6.3694 3.09633,-10e-4 0.0233,11.88015 -3.07164,0.2988 v 6.29497 l -4.9276,-0.84173 -0.64241,2.20874 12.204,3.53765 v 5.48429 h 2.96121 v 10.05557 l -2.96121,0.30057 v 4.121499 h -3.00003 v 2.30576 l 2.99579,0.34996 0.004,6.21488 1.54622,3.49603 -0.0194,15.54974 h 3.00002 l 0.0194,19.85609 -3.00002,0.20003 -0.0194,50.54917 h 3.00002 v 20.11504 l -3.00002,0.20143 c 0,11.21586 0.0194,-1.19203 0.0194,16.21684 z"
       style="fill:none;stroke:#00000c;stroke-width:0.025;stroke-linecap:butt;stroke-linejoin:miter;stroke-miterlimit:22.9256;stroke-dasharray:none;stroke-opacity:1"
       sodipodi:nodetypes="ccccccccccccccccccccccccccccccccccccccccccccccccccccccccccccccccccc" />
    <path
       id="path39"
       d="m 167.48899,235.12857 h 6.69996 v 3.00003 h 10.34379 l 0.19967,-3.00003 h 7.18503 l 14.27379,-14.37851 0,-43.68659 -12.43118,-10.16705 0.005,-93.92144 7.42674,-10.20163 V 41.22216 l -7.68667,0.0109 v -2.30011 l 5.99334,-0.69992 1.69333,-0.0109 V 29.03192 L 187.9972,23.68804 v -9.2329 l -2.91465,-5.0090897 h -5.3273 l -0.20002,-3.00003 h -8.3439 v 3.00003 h -6.01239 l -1.19486,30.0742997 1.34937,6.53874 -2.77706,0.81139 1.93781,8.27122 2.84832,-0.45755 2.0313,-4.32435 6.31684,0.004 0.007,6.36905 -3.09633,-10e-4 -0.0233,11.8798 3.07304,0.30056 v 6.29356 l 4.9276,-0.84067 0.64241,2.20768 -12.20399,3.5373 v 5.48605 h -2.96263 v 10.05576 l 2.96263,0.2988 v 4.12327 h 3.00002 v 2.30399 l -2.9972,0.34995 -0.003,6.2163 -1.54764,3.49497 0.0208,15.54974 h -3.00043 l -0.0208,19.8561 3.00002,0.19967 0.0194,50.55058 h -3.00002 l 0.001,20.11539 2.99861,0.19967 c 0,11.21586 -0.0194,-1.19062 -0.0194,16.21825 z"
       style="fill:none;stroke:#00000c;stroke-width:0.025;stroke-linecap:butt;stroke-linejoin:miter;stroke-miterlimit:22.9256;stroke-dasharray:none;stroke-opacity:1"
       sodipodi:nodetypes="cccccccccccccccccccccccccccccccccccccccccccccccccccccccccccc" />
    <path
       id="path1"
       style="fill:none;stroke:#00000c;stroke-width:0.025;stroke-dasharray:none"
       d="m 212.64069,195.35977 a 10,10 0 0 1 -10,10 10,10 0 0 1 -10,-10 10,10 0 0 1 10,-10 10,10 0 0 1 10,10 z" />
    <path
       id="path1-8"
       style="fill:none;stroke:#00000c;stroke-width:0.025;stroke-dasharray:none"
       d="m 238.30107,195.86632 a 10,10 0 0 1 -10,10 10,10 0 0 1 -10,-10 10,10 0 0 1 10,-10 10,10 0 0 1 10,10 z" />
    <rect
       style="fill:none;stroke:#00000c;stroke-width:0.025;stroke-dasharray:none"
       id="rect1"
       width="69.971779"
       height="24.971773"
       x="52.820755"
       y="127.7625" />
    <ellipse
       style="fill:none;stroke:#00000c;stroke-width:0.025;stroke-dasharray:none"
       id="path2"
       cx="69.806999"
       cy="166.04176"
       rx="5.4845843"
       ry="5.4845848" />
    <ellipse
       style="fill:none;stroke:#00000c;stroke-width:0.025;stroke-dasharray:none"
       id="path2-1"
       cx="105.807"
       cy="166.04201"
       rx="5.4845843"
       ry="5.4845848" />
    <path
       id="path201"
       d="m 59.502711,243.00475 15.03433,-1.86726 v -23.16092 l -15.03433,-1.87254 -15.03574,1.86584 v 23.16903 z"
       style="fill:none;stroke:#00000c;stroke-width:0.025;stroke-linecap:butt;stroke-linejoin:miter;stroke-miterlimit:22.9256;stroke-dasharray:none;stroke-opacity:1" />
    <path
       id="path202"
       d="m 59.502711,216.10403 v 26.90072"
       style="fill:none;stroke:#00000c;stroke-width:0.025;stroke-linecap:butt;stroke-linejoin:miter;stroke-miterlimit:22.9256;stroke-dasharray:none;stroke-opacity:1" />
    <path
       id="path203"
       d="m 73.929561,224.51813 -14.42685,1.79141 -14.36758,-1.8355"
       style="fill:none;stroke:#00000c;stroke-width:0.025;stroke-linecap:butt;stroke-linejoin:miter;stroke-miterlimit:22.9256;stroke-dasharray:none;stroke-opacity:1" />
    <path
       id="path204"
       d="m 73.830081,234.55572 -14.32737,-1.78576 -14.351,1.78188"
       style="fill:none;stroke:#00000c;stroke-width:0.025;stroke-linecap:butt;stroke-linejoin:miter;stroke-miterlimit:22.9256;stroke-dasharray:none;stroke-opacity:1" />
    <path
       id="path235"
       d="m 23.431191,243.00475 15.03574,-1.86585 v -23.16233 l -15.03574,-1.87254 -15.0343295,1.86584 v 23.16903 z"
       style="fill:none;stroke:#00000c;stroke-width:0.025;stroke-linecap:butt;stroke-linejoin:miter;stroke-miterlimit:22.9256;stroke-dasharray:none;stroke-opacity:1" />
    <path
       id="path236"
       d="m 23.431191,216.10403 v 26.90072"
       style="fill:none;stroke:#00000c;stroke-width:0.025;stroke-linecap:butt;stroke-linejoin:miter;stroke-miterlimit:22.9256;stroke-dasharray:none;stroke-opacity:1" />
    <path
       id="path237"
       d="m 37.859091,224.51813 -14.4279,1.79141 -14.3675795,-1.8355"
       style="fill:none;stroke:#00000c;stroke-width:0.025;stroke-linecap:butt;stroke-linejoin:miter;stroke-miterlimit:22.9256;stroke-dasharray:none;stroke-opacity:1" />
    <path
       id="path238"
       d="m 37.758551,234.55572 -14.32736,-1.78576 -14.3495895,1.78188"
       style="fill:none;stroke:#00000c;stroke-width:0.025;stroke-linecap:butt;stroke-linejoin:miter;stroke-miterlimit:22.9256;stroke-dasharray:none;stroke-opacity:1" />
    <path
       id="path69"
       d="m 103.79788,230.96224 c -1.99814,0.001 -3.916543,-0.79092 -5.330123,-2.20345 -1.41535,-1.41252 -2.21051,-3.33904 -2.21192,-5.33858 0,-1.99813 0.79234,-3.91619 2.20486,-5.33012 1.41252,-1.41535 3.339043,-2.21051 5.337183,-2.21192 1.99954,-0.001 3.91653,0.79234 5.33153,2.20486 1.41393,1.41253 2.20909,3.33905 2.2105,5.33718 0,1.99954 -0.79093,3.91654 -2.20345,5.33153 -1.41252,1.41393 -3.33904,2.20909 -5.33858,2.2105 z"
       style="fill:none;stroke:#00000c;stroke-width:0.025;stroke-linecap:butt;stroke-linejoin:bevel;stroke-miterlimit:22.9256;stroke-dasharray:none;stroke-opacity:1" />
    <path
       id="path70"
       d="m 121.19299,230.96224 c -1.99813,0.001 -3.91654,-0.79092 -5.33188,-2.20345 -1.41393,-1.41252 -2.20874,-3.33904 -2.21015,-5.33858 0,-1.99813 0.79093,-3.91619 2.20345,-5.33012 1.41393,-1.41535 3.33904,-2.21051 5.33858,-2.21192 1.99955,-0.001 3.91619,0.79234 5.33153,2.20486 1.41394,1.41253 2.2091,3.33905 2.21016,5.33718 0,1.99954 -0.79093,3.91654 -2.20345,5.33153 -1.41253,1.41393 -3.33869,2.20909 -5.33824,2.2105 z"
       style="fill:none;stroke:#00000c;stroke-width:0.025;stroke-linecap:butt;stroke-linejoin:bevel;stroke-miterlimit:22.9256;stroke-dasharray:none;stroke-opacity:1" />
    <path
       id="path71"
       d="m 138.58776,230.96224 c -1.99954,0.001 -3.91619,-0.79092 -5.33153,-2.20345 -1.41393,-1.41252 -2.21051,-3.33904 -2.21051,-5.33858 0,-1.99813 0.79093,-3.91619 2.20345,-5.33012 1.41253,-1.41535 3.33905,-2.21051 5.33859,-2.21192 1.99813,-0.001 3.91654,0.79234 5.33047,2.20486 1.41499,1.41253 2.21015,3.33905 2.21157,5.33718 0,1.99954 -0.79234,3.91654 -2.20487,5.33153 -1.41252,1.41393 -3.33904,2.20909 -5.33717,2.2105 z"
       style="fill:none;stroke:#00000c;stroke-width:0.025;stroke-linecap:butt;stroke-linejoin:bevel;stroke-miterlimit:22.9256;stroke-dasharray:none;stroke-opacity:1" />
    <path
       id="path72"
       d="m 102.38112,218.92088 h 2.83457 v 9.00007 h -2.83457 z"
       style="fill:none;stroke:#00000c;stroke-width:0.025;stroke-linecap:butt;stroke-linejoin:miter;stroke-miterlimit:22.9256;stroke-dasharray:none;stroke-opacity:1" />
    <path
       id="path73"
       d="m 119.77483,218.92088 h 2.83598 v 9.00007 h -2.83598 z"
       style="fill:none;stroke:#00000c;stroke-width:0.025;stroke-linecap:butt;stroke-linejoin:miter;stroke-miterlimit:22.9256;stroke-dasharray:none;stroke-opacity:1" />
    <path
       id="path74"
       d="m 137.16995,218.92088 h 2.83456 v 9.00007 h -2.83456 z"
       style="fill:none;stroke:#00000c;stroke-width:0.025;stroke-linecap:butt;stroke-linejoin:miter;stroke-miterlimit:22.9256;stroke-dasharray:none;stroke-opacity:1" />
    <path
       id="path75"
       d="m 86.404164,230.96224 c -1.99955,0.001 -3.91619,-0.79092 -5.33153,-2.20345 -1.41394,-1.41252 -2.2091,-3.33904 -2.21051,-5.33858 0,-1.99813 0.79128,-3.91619 2.20345,-5.33012 1.41252,-1.41535 3.33904,-2.21051 5.33859,-2.21192 1.99813,-0.001 3.91654,0.79234 5.33047,2.20486 1.414993,1.41253 2.210153,3.33905 2.211563,5.33718 0,1.99954 -0.79234,3.91654 -2.204863,5.33153 -1.41252,1.41393 -3.33763,2.20909 -5.33717,2.2105 z"
       style="fill:none;stroke:#00000c;stroke-width:0.025;stroke-linecap:butt;stroke-linejoin:bevel;stroke-miterlimit:22.9256;stroke-dasharray:none;stroke-opacity:1" />
    <path
       id="path76"
       d="m 84.986344,218.92088 h 2.83598 v 9.00007 h -2.83598 z"
       style="fill:none;stroke:#00000c;stroke-width:0.025;stroke-linecap:butt;stroke-linejoin:miter;stroke-miterlimit:22.9256;stroke-dasharray:none;stroke-opacity:1" />
  </g>
</svg>
